<?xml version="1.0" encoding="utf-8"?>
<svg version="1.1" xmlns:xlink="http://www.w3.org/1999/xlink" width="18px" height="20px" xmlns="http://www.w3.org/2000/svg">
  <g transform="matrix(1 0 0 1 -942 -451 )">
    <path d="M 10.6583850931677 17.875751503006  C 10.7826086956522 18.0093520374081  10.8447204968944 18.1629926519706  10.8447204968944 18.3366733466934  C 10.8447204968944 18.5103540414162  10.7826086956522 18.6639946559786  10.6583850931677 18.7975951903808  L 9.72670807453416 19.7995991983968  C 9.60248447204969 19.9331997327989  9.45962732919255 20  9.29813664596273 20  C 9.13664596273292 20  8.99378881987578 19.9331997327989  8.8695652173913 19.7995991983968  L 0.186335403726708 10.4609218436874  C 0.0621118012422361 10.3273213092852  0 10.1736806947228  0 10  C 0 9.82631930527722  0.0621118012422361 9.67267869071476  0.186335403726708 9.53907815631263  L 8.8695652173913 0.200400801603207  C 8.99378881987578 0.0668002672010681  9.13664596273292 0  9.29813664596273 0  C 9.45962732919255 0  9.60248447204969 0.0668002672010681  9.72670807453416 0.200400801603207  L 10.6583850931677 1.20240480961924  C 10.7826086956522 1.33600534402137  10.8447204968944 1.48964595858383  10.8447204968944 1.66332665330661  C 10.8447204968944 1.83700734802939  10.7826086956522 1.99064796259185  10.6583850931677 2.12424849699399  L 3.33540372670807 10  L 10.6583850931677 17.875751503006  Z M 17.8136645962733 17.875751503006  C 17.9378881987578 18.0093520374081  18 18.1629926519706  18 18.3366733466934  C 18 18.5103540414162  17.9378881987578 18.6639946559786  17.8136645962733 18.7975951903808  L 16.8819875776398 19.7995991983968  C 16.7577639751553 19.9331997327989  16.6149068322981 20  16.4534161490683 20  C 16.2919254658385 20  16.1490683229814 19.9331997327989  16.0248447204969 19.7995991983968  L 7.3416149068323 10.4609218436874  C 7.21739130434783 10.3273213092852  7.15527950310559 10.1736806947228  7.15527950310559 10  C 7.15527950310559 9.82631930527722  7.21739130434783 9.67267869071476  7.3416149068323 9.53907815631263  L 16.0248447204969 0.200400801603207  C 16.1490683229814 0.0668002672010681  16.2919254658385 0  16.4534161490683 0  C 16.6149068322981 0  16.7577639751553 0.0668002672010681  16.8819875776398 0.200400801603207  L 17.8136645962733 1.20240480961924  C 17.9378881987578 1.33600534402137  18 1.48964595858383  18 1.66332665330661  C 18 1.83700734802939  17.9378881987578 1.99064796259185  17.8136645962733 2.12424849699399  L 10.4906832298137 10  L 17.8136645962733 17.875751503006  Z " fill-rule="nonzero" fill="#555555" stroke="none" transform="matrix(1 0 0 1 942 451 )" />
  </g>
</svg>